#!OML:ASF F:\VICON\USERDATA\INSTALL\rory3\rory3.ASF
:FULLY-SPECIFIED
:DEGREES
10
root 0.7413110000000003 17.9687 -21.91099999999995 -1.8439100000000002 1.6119100000000013 -0.2760040000000006
lfemur 8.391259999999958 -1.8642899999999996 -21.0581
ltibia 40.698199999999986
lfoot 11.21759999999997 -12.339400000000012
ltoes -13.154799999999987
rfemur -25.278499999999998 4.93145 22.165900000000008
rtibia 29.983500000000003
rfoot -1.8892299999999986 -4.725540000000004
rtoes 8.690249999999995
lowerback 1.0 -2.1810699999999965 -1.2224799999999962
upperback -0.21182200000000048 -2.883059999999995 2.7802500000000014
thorax -6.13459 -1.3344999999999991 4.0756599999999965
lowerneck -15.7469 -2.70454 -2.4512599999999996
upperneck 24.301499999999997 -2.9329000000000005 -0.9107279999999988
head 10.407100000000002 -1.6908599999999998 -0.3080690000000009
lclavicle -3.230249999999992e-14 7.951389999999985e-15
lhumerus -26.646199999999997 0.8883190000000027 83.6589
lradius 31.529999999999994
lwrist 5.066930000000002
lhand -30.214400000000005 28.465300000000003
lfingers 7.12502
lthumb -3.524509999999994 58.41589999999999
rclavicle -3.230249999999992e-14 7.951389999999985e-15
rhumerus -39.7568 -32.81959999999999 -65.7099
rradius 17.250499999999988
rwrist 16.59750000000001
rhand -19.8104 1.0
rfingers 7.12502
rthumb 6.522890000000002 -10.273699999999995
11
root 0.6412459999999994 18.0508 -21.146000000000008 -2.20861 2.2324900000000003 -2.13069
lfemur 2.9913699999999945 -2.3808200000000004 -18.321100000000005
ltibia 50.24449999999999
lfoot 22.211800000000054 -15.180499999999986
ltoes -4.109299999999998
rfemur -22.126700000000014 4.704809999999998 24.9918
rtibia 29.842300000000005
rfoot -3.8875200000000034 -5.0350300000000034
rtoes 10.552300000000006
lowerback 1.0 -2.480600000000002 0.35267300000000024
upperback -0.689961999999998 -3.002960000000001 3.5378099999999995
thorax -7.017009999999998 -1.4115200000000012 4.067160000000003
lowerneck -14.8492 -2.6673699999999996 -2.735399999999998
upperneck 24.266299999999998 -2.747799999999999 -1.2496399999999972
head 10.2214 -1.6737299999999997 -0.3412830000000008
lclavicle 2.0847500000000028e-14 -3.021530000000001e-14
lhumerus -29.0656 1.85882 84.2644
lradius 31.21159999999999
lwrist 5.076010000000002
lhand -29.3821 26.382299999999997
lfingers 7.12502
lthumb -2.7206899999999976 56.3447
rclavicle 2.0847500000000028e-14 -3.021530000000001e-14
rhumerus -39.7608 -29.353700000000003 -66.9263
rradius 17.908500000000004
rwrist 13.882300000000008
rhand -19.4915 1.0
rfingers 7.12502
rthumb 6.830709999999999 -9.988840000000003
12
root 0.5514190000000002 18.1159 -20.40910000000006 -2.37523 1.5622799999999928 -3.448870000000001
lfemur -2.5325500000000076 -1.7820900000000002 -16.415700000000005
ltibia 58.7638
lfoot 23.66760000000003 -15.977099999999988
ltoes -3.645260000000005
rfemur -19.035800000000005 5.6809199999999995 27.229299999999995
rtibia 29.439700000000006
rfoot -5.6044599999999996 -5.766930000000001
rtoes 9.336449999999996
lowerback 1.0 -2.2649600000000008 1.15691
upperback -0.911528999999999 -2.562139999999996 4.114450000000002
thorax -7.1918299999999995 -1.2110099999999973 4.1540400000000055
lowerneck -13.2964 -2.5310800000000007 -3.2125400000000006
upperneck 23.540600000000005 -2.564519999999998 -1.0062200000000026
head 9.67576 -1.5985300000000002 -0.1220139999999999
lclavicle -1.3219199999999994e-14 3.975689999999996e-14
lhumerus -30.7238 3.15209 84.6717
lradius 29.795399999999994
lwrist 5.13606
lhand -29.188700000000004 6.951169999999987
lfingers 7.12502
lthumb -2.5339500000000044 36.91589999999996
rclavicle -1.3219199999999994e-14 3.975689999999996e-14
rhumerus -38.6441 -26.968200000000003 -68.01329999999999
rradius 17.662799999999997
rwrist 14.0614
rhand -17.2217 1.0
rfingers 7.12502
rthumb 9.021409999999996 -6.6452100000000005
13
root 0.477074 18.171 -19.713499999999947 -2.7653 1.2435700000000023 -3.7577299999999974
lfemur -7.144629999999999 -1.1208199999999993 -15.820299999999996
ltibia 64.71970000000007
lfoot 15.219000000000028 -16.339199999999977
ltoes 0.17056000000000093
rfemur -15.9609 6.30918 28.330099999999995
rtibia 29.435399999999987
rfoot -7.627740000000002 -6.86075
rtoes 8.872250000000006
lowerback 1.0 -1.5044699999999975 1.7550900000000005
upperback -0.4134489999999992 -1.5177699999999952 3.6757400000000024
thorax -6.7129199999999996 -0.7364999999999989 3.147429999999999
lowerneck -14.286299999999997 -2.99866 -2.6246600000000004
upperneck 24.0409 -3.3983400000000006 -0.7115170000000027
head 10.0433 -1.89712 -0.24291099999999927
lclavicle -4.3981100000000016e-15 2.1468699999999993e-14
lhumerus -30.3428 3.27725 84.44629999999998
lradius 27.845499999999998
lwrist 3.64033
lhand -28.9493 20.742499999999996
lfingers 7.12502
lthumb -2.302780000000002 50.709799999999994
rclavicle -4.3981100000000016e-15 2.1468699999999993e-14
rhumerus -36.923000000000016 -28.296300000000002 -68.95849999999999
rradius 17.561900000000005
rwrist 15.444000000000008
rhand -17.376599999999996 1.0
rfingers 7.12502
rthumb 8.871930000000003 -8.543369999999998
14
root 0.4303469999999999 18.1922 -19.035799999999995 -3.003630000000001 0.48313399999999596 -4.206690000000004
lfemur -11.8297 -0.29398999999999775 -15.322799999999996
ltibia 68.57939999999996
lfoot 3.0909800000000054 -16.97700000000002
ltoes -18.814500000000017
rfemur -12.5991 6.885439999999997 29.476399999999995
rtibia 28.46099999999999
rfoot -11.621000000000011 -6.51977
rtoes 0.9999049999999992
lowerback 1.0 -0.8588440000000009 2.7031500000000017
upperback -0.16029800000000008 -0.5685490000000009 3.267010000000001
thorax -6.500519999999997 -0.31087800000000043 2.012650000000001
lowerneck -15.029 -3.25833 -2.2085999999999997
upperneck 24.6383 -3.90045 -0.5187870000000002
head 10.4005 -2.0644300000000007 -0.3310310000000003
lclavicle 1.8710599999999974e-14 -7.951390000000007e-15
lhumerus -31.0871 3.4087000000000005 84.0952
lradius 26.913200000000003
lwrist 3.1346300000000005
lhand -28.5323 22.5949
lfingers 7.12502
lthumb -1.899999999999998 52.5662
rclavicle 1.8710599999999974e-14 -7.951390000000007e-15
rhumerus -35.15890000000002 -28.8285 -70.2298
rradius 17.77310000000001
rwrist 14.758300000000018
rhand -14.773500000000006 1.0
rfingers 7.12502
rthumb 11.383199999999995 -3.786999999999997
